<?xml version="1.0" encoding="utf-8"?>
<!-- Generator: Adobe Illustrator 27.5.0, SVG Export Plug-In . SVG Version: 6.00 Build 0)  -->
<svg version="1.1" xmlns="http://www.w3.org/2000/svg" xmlns:xlink="http://www.w3.org/1999/xlink" x="0px" y="0px"
	 viewBox="0 0 500 500" style="enable-background:new 0 0 500 500;" xml:space="preserve">
<g id="Background_Complete">
	<rect x="416.779" y="398.494" style="fill:#EBEBEB;" width="33.122" height="0.25"/>
	<rect x="322.527" y="401.208" style="fill:#EBEBEB;" width="8.693" height="0.25"/>
	<rect x="396.586" y="389.208" style="fill:#EBEBEB;" width="19.192" height="0.25"/>
	<rect x="52.459" y="390.888" style="fill:#EBEBEB;" width="43.193" height="0.25"/>
	<rect x="104.556" y="390.888" style="fill:#EBEBEB;" width="6.333" height="0.25"/>
	<rect x="131.471" y="395.111" style="fill:#EBEBEB;" width="93.676" height="0.25"/>
	<g>
		<path style="fill:#EBEBEB;" d="M238.401,337.8H45.302c-3.147,0-5.708-2.561-5.708-5.708V60.66c0-3.147,2.561-5.708,5.708-5.708
			h193.099c3.146,0,5.707,2.561,5.707,5.708v271.432C244.108,335.239,241.547,337.8,238.401,337.8z M45.302,55.203
			c-3.01,0-5.458,2.448-5.458,5.458v271.432c0,3.01,2.448,5.458,5.458,5.458h193.099c3.009,0,5.457-2.448,5.457-5.458V60.66
			c0-3.009-2.448-5.458-5.457-5.458H45.302z"/>
		<path style="fill:#EBEBEB;" d="M454.698,337.8H261.599c-3.146,0-5.707-2.561-5.707-5.708V60.66c0-3.147,2.561-5.708,5.707-5.708
			h193.099c3.148,0,5.708,2.561,5.708,5.708v271.432C460.406,335.239,457.845,337.8,454.698,337.8z M261.599,55.203
			c-3.009,0-5.457,2.448-5.457,5.458v271.432c0,3.01,2.448,5.458,5.457,5.458h193.099c3.01,0,5.458-2.448,5.458-5.458V60.66
			c0-3.009-2.448-5.458-5.458-5.458H261.599z"/>
	</g>
	<rect y="382.398" style="fill:#EBEBEB;" width="500" height="0.25"/>
	<g>
		<g>
			<path style="fill:#EBEBEB;" d="M69.874,382.648c0,0,4.316-6.517,6.02-8.289c1.371-1.426,4.642-3.211,6.02-4.627
				c1.208-1.241,1.958-3.918,2.58-5.783c6.791-20.348,7.31-89.062,7.31-89.062h13.76c0,0,1.162,66.446,6.02,87.327
				c0.562,2.414,2.274,7.338,3.87,8.675c1.099,0.92,4.033,2.036,5.16,2.892c2.235,1.696,4.3,8.868,4.3,8.868H69.874z"/>
			<g>
				<path style="fill:#E0E0E0;" d="M120.615,373.781c-1.128-0.855-4.061-1.972-5.16-2.892c-1.597-1.336-3.308-6.261-3.87-8.675
					c-4.859-20.881-6.02-87.327-6.02-87.327h-3.297v38.362l-4.874-16.964l4.874,47.037l-2.115,11.397l3.835,19.061l-6.594-2.699
					l3.297,8.096l-13.043,3.47h37.267C124.915,382.648,122.85,375.476,120.615,373.781z"/>
				<polygon style="fill:#E0E0E0;" points="94.528,315.177 97.395,342.166 92.521,352.576 				"/>
			</g>
		</g>
		<polygon style="fill:#F0F0F0;" points="134.133,283.94 116.843,240.268 124.242,246.291 109.728,208.663 116.098,214.685 
			102.947,180.025 108.483,186.048 96.966,160.968 85.449,186.048 90.984,180.025 77.833,214.685 84.203,208.663 69.689,246.291 
			77.088,240.268 59.799,283.94 		"/>
	</g>
	<g>
		<g>
			<path style="fill:#EBEBEB;" d="M395.179,382.648c0,0,3.136-4.272,4.374-5.433c0.996-0.935,3.373-2.105,4.374-3.032
				c0.878-0.813,1.422-2.568,1.875-3.79c4.934-13.336,5.311-58.372,5.311-58.372h9.997c0,0,0.844,43.549,4.374,57.235
				c0.408,1.582,1.652,4.81,2.812,5.686c0.798,0.603,2.93,1.335,3.749,1.895c1.624,1.111,3.124,5.812,3.124,5.812H395.179z"/>
			<g>
				<path style="fill:#E0E0E0;" d="M432.044,376.836c-0.819-0.561-2.951-1.292-3.749-1.895c-1.16-0.876-2.404-4.104-2.812-5.686
					c-3.53-13.686-4.374-57.235-4.374-57.235h-2.395v25.143l-3.541-11.118l3.541,30.828l-1.537,7.47l2.786,12.493l-4.791-1.769
					l2.395,5.307l-9.477,2.274h27.076C435.169,382.648,433.668,377.948,432.044,376.836z"/>
				<polygon style="fill:#E0E0E0;" points="413.091,338.427 415.174,356.116 411.633,362.938 				"/>
			</g>
		</g>
		<polygon style="fill:#F5F5F5;" points="445.348,316.831 431.311,277.658 437.318,283.06 425.535,249.309 430.706,254.711 
			420.03,223.622 424.524,229.025 415.174,206.529 405.824,229.025 410.318,223.622 399.641,254.711 404.813,249.309 393.03,283.06 
			399.036,277.658 385,316.831 		"/>
	</g>
	<g>
		<path style="fill:#EBEBEB;" d="M161.357,382.648c0,0,4.676-5.25,6.522-6.677c1.486-1.149,5.029-2.587,6.521-3.727
			c1.309-1,2.121-3.156,2.795-4.658c7.356-16.39,7.919-71.737,7.919-71.737h14.906c0,0,1.258,53.52,6.522,70.34
			c0.608,1.944,2.463,5.911,4.192,6.987c1.191,0.741,4.368,1.64,5.59,2.329c2.421,1.366,4.658,7.143,4.658,7.143H161.357z"/>
		<g>
			<path style="fill:#E0E0E0;" d="M216.324,375.506c-1.221-0.689-4.399-1.588-5.59-2.329c-1.729-1.077-3.584-5.043-4.192-6.987
				c-5.263-16.819-6.522-70.34-6.522-70.34h-3.571v30.9l-5.28-13.664l5.28,37.887l-2.291,9.18l4.155,15.353l-7.143-2.174
				l3.571,6.521l-14.13,2.795h40.371C220.982,382.648,218.745,376.871,216.324,375.506z"/>
			<polygon style="fill:#E0E0E0;" points="188.064,328.302 191.17,350.041 185.89,358.426 			"/>
		</g>
		<polygon style="fill:#F0F0F0;" points="248,301.642 221.255,234.086 232.7,243.402 210.248,185.195 220.102,194.511 
			199.759,140.895 208.322,150.211 190.506,111.415 172.69,150.211 181.254,140.895 160.91,194.511 170.764,185.195 
			148.312,243.402 159.757,234.086 133.012,301.642 		"/>
	</g>
	<g>
		<path style="fill:#EBEBEB;" d="M278.58,382.648c0,0,3.577-4.016,4.989-5.108c1.137-0.879,3.848-1.979,4.989-2.851
			c1.001-0.765,1.622-2.414,2.138-3.564c5.628-12.539,6.058-54.882,6.058-54.882h11.404c0,0,0.963,40.945,4.989,53.813
			c0.465,1.487,1.884,4.522,3.207,5.346c0.911,0.567,3.342,1.255,4.276,1.782c1.852,1.045,3.564,5.464,3.564,5.464H278.58z"/>
		<g>
			<path style="fill:#E0E0E0;" d="M320.632,377.184c-0.935-0.527-3.366-1.215-4.276-1.782c-1.323-0.824-2.742-3.858-3.207-5.346
				c-4.027-12.867-4.989-53.813-4.989-53.813h-2.732v23.64l-4.039-10.454l4.039,28.985l-1.753,7.023l3.178,11.746l-5.465-1.663
				l2.732,4.989l-10.81,2.138h30.885C324.196,382.648,322.484,378.229,320.632,377.184z"/>
			<polygon style="fill:#E0E0E0;" points="299.012,341.071 301.388,357.702 297.349,364.117 			"/>
		</g>
		<polygon style="fill:#F5F5F5;" points="344.866,320.676 324.405,268.992 333.16,276.12 315.984,231.589 323.522,238.716 
			307.959,197.698 314.51,204.825 300.88,175.144 287.25,204.825 293.802,197.698 278.238,238.716 285.777,231.589 268.6,276.12 
			277.356,268.992 256.895,320.676 		"/>
	</g>
	<g>
		<path style="fill:#EBEBEB;" d="M324.472,382.648c0,0,3.892-6.472,5.428-8.232c1.236-1.416,4.186-3.189,5.428-4.595
			c1.089-1.232,1.765-3.891,2.326-5.743c6.123-20.207,6.591-88.447,6.591-88.447h12.407c0,0,1.047,65.987,5.428,86.724
			c0.506,2.397,2.05,7.288,3.489,8.615c0.991,0.914,3.636,2.022,4.652,2.872c2.015,1.684,3.877,8.806,3.877,8.806H324.472z"/>
		<g>
			<path style="fill:#E0E0E0;" d="M370.222,373.842c-1.017-0.849-3.662-1.958-4.652-2.872c-1.439-1.327-2.983-6.218-3.489-8.615
				c-4.381-20.737-5.428-86.724-5.428-86.724h-2.972v38.097l-4.394-16.847l4.394,46.712l-1.907,11.318l3.458,18.93l-5.945-2.68
				l2.973,8.041l-11.76,3.446h33.601C374.099,382.648,372.237,375.526,370.222,373.842z"/>
			<polygon style="fill:#E0E0E0;" points="346.701,315.643 349.285,342.445 344.891,352.783 			"/>
		</g>
		<polygon style="fill:#E6E6E6;" points="396.586,279.858 374.326,223.63 383.851,231.385 365.164,182.938 373.366,190.692 
			356.434,146.067 363.562,153.821 348.733,121.531 333.905,153.821 341.032,146.067 324.1,190.692 332.302,182.938 
			313.615,231.385 323.14,223.63 300.88,279.858 		"/>
	</g>
	<path style="fill:#F5F5F5;" d="M289.171,133.606c-15.237,0.402-70.509,0.833-60.822-5.365c9.687-6.198-13.765-1.408-9.519-18.111
		c3.383-13.311,18.032-6.636,18.032-6.636s-0.112-17.424,13.137-17.692c13.249-0.269,18.474,16.969,18.474,16.969
		s11.249-10.862,22.023-7.587c10.774,3.275,2.839,15.321,11.619,17.085c8.78,1.764,23.627,0.462,23.422,5.173
		c-0.256,5.878-24.478,0.607-23.823,6.436c0.655,5.829,10.313,0.171,11.202,5.556C313.807,134.819,295.258,133.445,289.171,133.606z
		"/>
	<g>
		<path style="fill:#F0F0F0;" d="M392.094,116.131c-9.848,0.544-45.587,1.849-39.437-2.339c6.15-4.189-4.048-3.474-2.373-10.665
			c1.073-4.607,7.419-5.499,7.419-5.499s-0.397-11.267,8.168-11.687c8.564-0.42,12.264,10.631,12.264,10.631
			s7.074-7.234,14.103-5.316c7.029,1.918,2.104,11.398,7.815,12.375c5.711,0.978,8.399,0.712,8.453,2.882
			c0.071,2.892-8.45,0.525-8.479,3.092c-0.034,3.008,19.189,0.177,19.865,3.644C420.566,116.716,396.028,115.914,392.094,116.131z"
			/>
		<path style="fill:#FAFAFA;" d="M412.989,142.079c-10.599,0.28-49.044,0.579-42.306-3.732c6.738-4.311-9.574-0.979-6.621-12.598
			c2.353-9.259,12.543-4.616,12.543-4.616s-0.078-12.119,9.138-12.306c9.216-0.187,12.85,11.803,12.85,11.803
			s7.825-7.555,15.319-5.277c7.494,2.278,1.975,10.657,8.082,11.884s16.435,0.321,16.292,3.598
			c-0.178,4.088-17.026,0.422-16.57,4.477c0.456,4.055,7.173,0.119,7.792,3.865C430.125,142.923,417.223,141.967,412.989,142.079z"
			/>
	</g>
	<path style="fill:#F5F5F5;" d="M126.731,139.729c-13.376,0.738-61.922,2.512-53.568-3.178c8.354-5.69-5.499-4.718-3.223-14.486
		c1.458-6.257,10.077-7.47,10.077-7.47s-0.539-15.304,11.094-15.875c11.633-0.571,16.658,14.441,16.658,14.441
		s9.608-9.826,19.156-7.221c9.548,2.605,2.858,15.482,10.615,16.81c7.757,1.328,11.409,0.968,11.481,3.915
		c0.096,3.928-11.478,0.713-11.517,4.2c-0.046,4.086,26.065,0.24,26.983,4.949C165.406,140.523,132.075,139.434,126.731,139.729z"/>
</g>
<g id="Background_Simple" style="display:none;">
	<g style="display:inline;">
		<path style="fill:#407BFF;" d="M76.78,224.385c16.673-48.454,70.149-32.224,105.673-47.454
			c40.877-17.525,90.143-80.893,163.664-55.357c41.336,14.357,83.336,76.733,76.067,137.524
			c-7.878,65.88-46.731,92.833-93.731,109.323c-55.579,19.501-140.057,24.214-190.939-3.27
			C90.452,339.731,62.371,266.259,76.78,224.385z"/>
		<path style="opacity:0.9;fill:#FFFFFF;" d="M76.78,224.385c16.673-48.454,70.149-32.224,105.673-47.454
			c40.877-17.525,90.143-80.893,163.664-55.357c41.336,14.357,83.336,76.733,76.067,137.524
			c-7.878,65.88-46.731,92.833-93.731,109.323c-55.579,19.501-140.057,24.214-190.939-3.27
			C90.452,339.731,62.371,266.259,76.78,224.385z"/>
	</g>
</g>
<g id="Shadow">
	<ellipse id="_x3C_Path_x3E__359_" style="fill:#F5F5F5;" cx="250" cy="415.693" rx="193.889" ry="11.323"/>
</g>
<g id="Target">
	<g>
		<path style="fill:#407BFF;" d="M300.386,228.486h-13.632c-1.934,0-3.153-2.116-2.143-3.766c2.741-4.481,4.464-9.665,4.836-15.245
			l0.927-26.469c1.288-19.354-14.063-35.762-33.46-35.762h-1.855c-19.397,0-34.749,16.408-33.46,35.762l0.927,26.469
			c0.372,5.58,2.095,10.764,4.836,15.245c1.009,1.65-0.209,3.766-2.143,3.766h-13.632c-22.799,0-40.143,20.47-36.4,42.959
			l24.202,145.393h113.193l24.202-145.393C340.529,248.956,323.185,228.486,300.386,228.486z"/>
		<g>
			<g>
				<path style="fill:#407BFF;" d="M295.886,228.486h-13.632c-1.934,0-3.153-2.116-2.143-3.766
					c2.741-4.481,4.464-9.665,4.836-15.245l0.927-26.469c1.288-19.354-14.063-35.762-33.46-35.762h-1.855
					c-19.397,0-34.749,16.408-33.46,35.762l0.927,26.469c0.372,5.58,2.095,10.764,4.836,15.245c1.009,1.65-0.209,3.766-2.143,3.766
					h-13.632c-22.799,0-40.143,20.47-36.4,42.959l24.202,145.393h113.193l24.202-145.393
					C336.029,248.956,318.685,228.486,295.886,228.486z"/>
				<path style="opacity:0.6;fill:#FFFFFF;" d="M295.886,228.486h-13.632c-1.934,0-3.153-2.116-2.143-3.766
					c2.741-4.481,4.464-9.665,4.836-15.245l0.927-26.469c1.288-19.354-14.063-35.762-33.46-35.762h-1.855
					c-19.397,0-34.749,16.408-33.46,35.762l0.927,26.469c0.372,5.58,2.095,10.764,4.836,15.245c1.009,1.65-0.209,3.766-2.143,3.766
					h-13.632c-22.799,0-40.143,20.47-36.4,42.959l24.202,145.393h113.193l24.202-145.393
					C336.029,248.956,318.685,228.486,295.886,228.486z"/>
			</g>
			<g>
				<path style="fill:#FFFFFF;" d="M251.487,233.206c-31.974,0-57.894,25.92-57.894,57.894c0,31.974,25.92,57.894,57.894,57.894
					c31.974,0,57.893-25.92,57.893-57.894C309.381,259.126,283.461,233.206,251.487,233.206z M251.487,337.612
					c-25.688,0-46.512-20.824-46.512-46.512c0-25.688,20.824-46.512,46.512-46.512c25.688,0,46.512,20.824,46.512,46.512
					C298,316.788,277.175,337.612,251.487,337.612z"/>
				<path style="fill:#FFFFFF;" d="M251.487,261.344c-16.434,0-29.755,13.322-29.755,29.755c0,16.433,13.322,29.755,29.755,29.755
					c16.434,0,29.755-13.322,29.755-29.755C281.243,274.666,267.921,261.344,251.487,261.344z M251.487,309.54
					c-10.184,0-18.44-8.256-18.44-18.44c0-10.184,8.256-18.44,18.44-18.44c10.184,0,18.44,8.256,18.44,18.44
					C269.927,301.284,261.672,309.54,251.487,309.54z"/>
			</g>
			<g>
				<path style="opacity:0.2;" d="M250.291,282.312c0,0,5.85,1.95,8.1-4.95c0,0-0.6,5.7,7.95,6.15c0,0-3.75,2.55-1.65,6.3
					c0,0-5.25,2.25-4.8,5.55c0,0-3.9-3.6-7.35-1.5c0,0,2.1-3.9-2.25-5.1C250.291,288.762,253.741,286.512,250.291,282.312z"/>
				<path style="fill:#263238;" d="M249.391,281.412c0,0,5.85,1.95,8.1-4.95c0,0-0.6,5.7,7.95,6.15c0,0-3.75,2.55-1.65,6.3
					c0,0-5.25,2.25-4.8,5.55c0,0-3.9-3.6-7.35-1.5c0,0,2.1-3.9-2.25-5.1C249.391,287.862,252.841,285.612,249.391,281.412z"/>
				<path style="opacity:0.6;fill:#FFFFFF;" d="M249.391,281.412c0,0,5.85,1.95,8.1-4.95c0,0-0.6,5.7,7.95,6.15
					c0,0-3.75,2.55-1.65,6.3c0,0-5.25,2.25-4.8,5.55c0,0-3.9-3.6-7.35-1.5c0,0,2.1-3.9-2.25-5.1
					C249.391,287.862,252.841,285.612,249.391,281.412z"/>
				<circle style="fill:#263238;" cx="256.591" cy="286.362" r="3.96"/>
			</g>
			<g>
				<path style="opacity:0.2;" d="M275.901,258.464c0,0,4.68,1.56,6.48-3.96c0,0-0.48,4.56,6.36,4.92c0,0-3,2.04-1.32,5.04
					c0,0-4.2,1.8-3.84,4.44c0,0-3.12-2.88-5.88-1.2c0,0,1.68-3.12-1.8-4.08C275.901,263.624,278.661,261.824,275.901,258.464z"/>
				<path style="fill:#263238;" d="M275.181,257.744c0,0,4.68,1.56,6.48-3.96c0,0-0.48,4.56,6.36,4.92c0,0-3,2.04-1.32,5.04
					c0,0-4.2,1.8-3.84,4.44c0,0-3.12-2.88-5.88-1.2c0,0,1.68-3.12-1.8-4.08C275.181,262.904,277.941,261.104,275.181,257.744z"/>
				<path style="opacity:0.6;fill:#FFFFFF;" d="M275.181,257.744c0,0,4.68,1.56,6.48-3.96c0,0-0.48,4.56,6.36,4.92
					c0,0-3,2.04-1.32,5.04c0,0-4.2,1.8-3.84,4.44c0,0-3.12-2.88-5.88-1.2c0,0,1.68-3.12-1.8-4.08
					C275.181,262.904,277.941,261.104,275.181,257.744z"/>
				<circle style="fill:#263238;" cx="280.941" cy="261.704" r="3.168"/>
			</g>
			<g>
				<path style="opacity:0.2;" d="M281.136,340.741c0,0,4.68,1.56,6.48-3.96c0,0-0.48,4.56,6.36,4.92c0,0-3,2.04-1.32,5.04
					c0,0-4.2,1.8-3.84,4.44c0,0-3.12-2.88-5.88-1.2c0,0,1.68-3.12-1.8-4.08C281.136,345.901,283.896,344.101,281.136,340.741z"/>
				<path style="fill:#263238;" d="M280.416,340.021c0,0,4.68,1.56,6.48-3.96c0,0-0.48,4.56,6.36,4.92c0,0-3,2.04-1.32,5.04
					c0,0-4.2,1.8-3.84,4.44c0,0-3.12-2.88-5.88-1.2c0,0,1.68-3.12-1.8-4.08C280.416,345.181,283.176,343.381,280.416,340.021z"/>
				<path style="opacity:0.6;fill:#FFFFFF;" d="M280.416,340.021c0,0,4.68,1.56,6.48-3.96c0,0-0.48,4.56,6.36,4.92
					c0,0-3,2.04-1.32,5.04c0,0-4.2,1.8-3.84,4.44c0,0-3.12-2.88-5.88-1.2c0,0,1.68-3.12-1.8-4.08
					C280.416,345.181,283.176,343.381,280.416,340.021z"/>
				<circle style="fill:#263238;" cx="286.176" cy="343.981" r="3.168"/>
			</g>
			<g>
				<path style="opacity:0.2;" d="M211.229,262.244c0,0,2.758,5.516,9.228,2.227c0,0-5.165,6.681,1.273,8.481
					c0,0-3.614,0.703-4.781,4.839c0,0-6.144-2.183-8.159,0.469c0,0-0.212-5.303-4.137-6.258c0,0,3.588-2.35,0-6.7
					C204.653,265.302,210.699,267.653,211.229,262.244z"/>
				<g>
					<path style="fill:#263238;" d="M211.229,260.444c0,0,2.758,5.516,9.228,2.227c0,0-5.165,6.681,1.273,8.481
						c0,0-3.614,0.703-4.781,4.839c0,0-6.144-2.183-8.159,0.469c0,0-0.212-5.303-4.137-6.258c0,0,3.588-2.35,0-6.7
						C204.653,263.502,210.699,265.853,211.229,260.444z"/>
					<path style="opacity:0.7;fill:#FFFFFF;" d="M211.225,260.445c0,0,2.761,5.514,9.229,2.222c0,0-5.161,6.684,1.278,8.48
						c0,0-3.614,0.705-4.778,4.842c0,0-6.145-2.179-8.159,0.474c0,0-0.215-5.303-4.14-6.255c0,0,3.587-2.352-0.004-6.7
						C204.651,263.507,210.698,265.855,211.225,260.445z"/>
					<circle style="fill:#263238;" cx="212.292" cy="269.352" r="3.96"/>
				</g>
			</g>
		</g>
	</g>
	<g>
		<path style="fill:#407BFF;" d="M144.727,317.4h-7.197c-1.021,0-1.664-1.117-1.132-1.988c1.447-2.366,2.357-5.103,2.553-8.048
			l0.49-13.974c0.68-10.218-7.424-18.88-17.665-18.88h-0.979c-10.24,0-18.345,8.662-17.665,18.88l0.49,13.974
			c0.196,2.946,1.106,5.683,2.553,8.048c0.533,0.871-0.11,1.988-1.132,1.988h-7.197c-12.037,0-21.193,10.807-19.217,22.68
			l12.777,76.759h59.759l12.777-76.759C165.921,328.207,156.764,317.4,144.727,317.4z"/>
		<g>
			<g>
				<path style="fill:#407BFF;" d="M142.352,317.4h-7.197c-1.021,0-1.664-1.117-1.132-1.988c1.447-2.366,2.357-5.103,2.553-8.048
					l0.49-13.974c0.68-10.218-7.424-18.88-17.665-18.88h-0.979c-10.241,0-18.345,8.662-17.665,18.88l0.49,13.974
					c0.196,2.946,1.106,5.683,2.553,8.048c0.533,0.871-0.11,1.988-1.132,1.988h-7.197c-12.037,0-21.193,10.807-19.217,22.68
					l12.777,76.759h59.759l12.777-76.759C163.545,328.207,154.388,317.4,142.352,317.4z"/>
				<path style="opacity:0.6;fill:#FFFFFF;" d="M142.352,317.4h-7.197c-1.021,0-1.664-1.117-1.132-1.988
					c1.447-2.366,2.357-5.103,2.553-8.048l0.49-13.974c0.68-10.218-7.424-18.88-17.665-18.88h-0.979
					c-10.241,0-18.345,8.662-17.665,18.88l0.49,13.974c0.196,2.946,1.106,5.683,2.553,8.048c0.533,0.871-0.11,1.988-1.132,1.988
					h-7.197c-12.037,0-21.193,10.807-19.217,22.68l12.777,76.759h59.759l12.777-76.759C163.545,328.207,154.388,317.4,142.352,317.4
					z"/>
			</g>
			<g>
				<path style="fill:#FFFFFF;" d="M118.912,322.948c-15.192,0-27.508,12.316-27.508,27.508c0,15.192,12.316,27.508,27.508,27.508
					s27.508-12.316,27.508-27.508C146.42,335.264,134.104,322.948,118.912,322.948z M118.912,372.556
					c-12.205,0-22.1-9.895-22.1-22.1s9.895-22.1,22.1-22.1c12.206,0,22.1,9.895,22.1,22.1S131.117,372.556,118.912,372.556z"/>
				<path style="fill:#FFFFFF;" d="M118.912,336.318c-7.808,0-14.138,6.33-14.138,14.138c0,7.808,6.33,14.138,14.138,14.138
					s14.138-6.33,14.138-14.138C133.05,342.648,126.72,336.318,118.912,336.318z M118.912,359.218c-4.839,0-8.762-3.923-8.762-8.762
					c0-4.839,3.923-8.762,8.762-8.762c4.839,0,8.762,3.923,8.762,8.762C127.674,355.295,123.751,359.218,118.912,359.218z"/>
			</g>
		</g>
	</g>
	<g>
		<path style="fill:#407BFF;" d="M405.339,317.4h-7.197c-1.021,0-1.664-1.117-1.132-1.988c1.447-2.366,2.357-5.103,2.553-8.048
			l0.49-13.974c0.68-10.218-7.424-18.88-17.665-18.88h-0.979c-10.241,0-18.345,8.662-17.665,18.88l0.49,13.974
			c0.196,2.946,1.106,5.683,2.553,8.048c0.533,0.871-0.11,1.988-1.132,1.988h-7.197c-12.037,0-21.193,10.807-19.217,22.68
			l12.777,76.759h59.759l12.777-76.759C426.532,328.207,417.375,317.4,405.339,317.4z"/>
		<g>
			<g>
				<path style="fill:#407BFF;" d="M402.963,317.4h-7.197c-1.021,0-1.664-1.117-1.132-1.988c1.447-2.366,2.357-5.103,2.553-8.048
					l0.49-13.974c0.68-10.218-7.424-18.88-17.665-18.88h-0.979c-10.241,0-18.345,8.662-17.665,18.88l0.49,13.974
					c0.196,2.946,1.106,5.683,2.553,8.048c0.533,0.871-0.11,1.988-1.132,1.988h-7.197c-12.037,0-21.193,10.807-19.217,22.68
					l12.777,76.759h59.759l12.777-76.759C424.156,328.207,415,317.4,402.963,317.4z"/>
				<path style="opacity:0.6;fill:#FFFFFF;" d="M402.963,317.4h-7.197c-1.021,0-1.664-1.117-1.132-1.988
					c1.447-2.366,2.357-5.103,2.553-8.048l0.49-13.974c0.68-10.218-7.424-18.88-17.665-18.88h-0.979
					c-10.241,0-18.345,8.662-17.665,18.88l0.49,13.974c0.196,2.946,1.106,5.683,2.553,8.048c0.533,0.871-0.11,1.988-1.132,1.988
					h-7.197c-12.037,0-21.193,10.807-19.217,22.68l12.777,76.759h59.759l12.777-76.759C424.156,328.207,415,317.4,402.963,317.4z"/>
			</g>
			<g>
				<path style="fill:#FFFFFF;" d="M379.523,322.948c-15.192,0-27.508,12.316-27.508,27.508c0,15.192,12.316,27.508,27.508,27.508
					s27.508-12.316,27.508-27.508C407.031,335.264,394.715,322.948,379.523,322.948z M379.523,372.556
					c-12.206,0-22.1-9.895-22.1-22.1s9.895-22.1,22.1-22.1c12.206,0,22.1,9.895,22.1,22.1S391.729,372.556,379.523,372.556z"/>
				<path style="fill:#FFFFFF;" d="M379.523,336.318c-7.808,0-14.138,6.33-14.138,14.138c0,7.808,6.33,14.138,14.138,14.138
					s14.138-6.33,14.138-14.138C393.661,342.648,387.331,336.318,379.523,336.318z M379.523,359.218
					c-4.839,0-8.762-3.923-8.762-8.762c0-4.839,3.923-8.762,8.762-8.762s8.762,3.923,8.762,8.762
					C388.285,355.295,384.362,359.218,379.523,359.218z"/>
			</g>
		</g>
	</g>
</g>
<g id="Scope">
	<g>
		<g>
			<polygon style="fill:#263238;" points="260.551,213.624 242.302,213.624 245.302,187.296 257.551,187.296 			"/>
			<path d="M243.486,203.233l-1.184,10.391h18.249l-1.184-10.391c-2.616-0.231-5.263-0.356-7.94-0.356
				C248.75,202.877,246.103,203.002,243.486,203.233z"/>
		</g>
		<g>
			<g>
				<polygon style="fill:#263238;" points="280.833,413.753 276.021,375.75 276.021,366.491 226.833,366.491 226.833,375.75 
					222.021,413.753 222.021,416.839 280.833,416.839 				"/>
				<path style="opacity:0.8;" d="M226.833,375.256c7.799,2.299,16.051,3.538,24.594,3.538c8.543,0,16.795-1.239,24.594-3.538
					v-8.766h-49.188V375.256z"/>
				<path style="fill:#263238;" d="M251.427,211.282c-44.55,0-80.665,36.115-80.665,80.665s36.115,80.665,80.665,80.665
					c44.55,0,80.665-36.115,80.665-80.665S295.977,211.282,251.427,211.282z M251.427,359.24c-37.165,0-67.293-30.128-67.293-67.293
					c0-37.165,30.128-67.293,67.293-67.293c37.165,0,67.293,30.128,67.293,67.293C318.72,329.112,288.592,359.24,251.427,359.24z"/>
			</g>
			<path style="opacity:0.6;fill:#FFFFFF;" d="M299.753,245.144c-9.786,47.742-47.388,85.344-95.13,95.13
				c12.112,11.733,28.608,18.966,46.803,18.966c37.165,0,67.293-30.128,67.293-67.293
				C318.72,273.753,311.486,257.256,299.753,245.144z"/>
		</g>
		<g>
			<rect x="250.527" y="224.591" style="fill:#407BFF;" width="1.8" height="9"/>
			<rect x="250.527" y="350.516" style="fill:#407BFF;" width="1.8" height="9"/>
			<polygon style="fill:#407BFF;" points="252.327,287.553 250.527,287.553 250.527,291.154 246.927,291.154 246.927,292.953 
				250.527,292.953 250.527,296.553 252.327,296.553 252.327,292.953 255.927,292.953 255.927,291.154 252.327,291.154 			"/>
			<rect x="237.483" y="287.553" style="fill:#407BFF;" width="0.9" height="9"/>
			<rect x="228.489" y="287.553" style="fill:#407BFF;" width="0.9" height="9"/>
			<rect x="219.496" y="287.553" style="fill:#407BFF;" width="0.9" height="9"/>
			<rect x="210.502" y="287.553" style="fill:#407BFF;" width="0.9" height="9"/>
			<rect x="201.508" y="287.553" style="fill:#407BFF;" width="0.9" height="9"/>
			<rect x="300.445" y="287.553" style="fill:#407BFF;" width="0.9" height="9"/>
			<rect x="291.452" y="287.553" style="fill:#407BFF;" width="0.9" height="9"/>
			<rect x="282.458" y="287.553" style="fill:#407BFF;" width="0.9" height="9"/>
			<rect x="273.464" y="287.553" style="fill:#407BFF;" width="0.9" height="9"/>
			<rect x="264.47" y="287.553" style="fill:#407BFF;" width="0.9" height="9"/>
			<rect x="246.927" y="341.072" style="fill:#407BFF;" width="9" height="0.9"/>
			<rect x="246.927" y="332.078" style="fill:#407BFF;" width="9" height="0.9"/>
			<rect x="246.927" y="323.084" style="fill:#407BFF;" width="9" height="0.9"/>
			<rect x="246.927" y="314.09" style="fill:#407BFF;" width="9" height="0.9"/>
			<rect x="246.927" y="305.097" style="fill:#407BFF;" width="9" height="0.9"/>
			<rect x="246.927" y="278.11" style="fill:#407BFF;" width="9" height="0.9"/>
			<rect x="246.927" y="269.116" style="fill:#407BFF;" width="9" height="0.9"/>
			<rect x="246.927" y="260.122" style="fill:#407BFF;" width="9" height="0.9"/>
			<rect x="246.927" y="251.128" style="fill:#407BFF;" width="9" height="0.9"/>
			<rect x="246.927" y="242.134" style="fill:#407BFF;" width="9" height="0.9"/>
			<rect x="309.889" y="291.154" style="fill:#407BFF;" width="9" height="1.8"/>
			<rect x="183.964" y="291.154" style="fill:#407BFF;" width="9" height="1.8"/>
		</g>
	</g>
</g>
</svg>
